<?xml version="1.0" encoding="utf-8" standalone="no"?>
<!DOCTYPE svg PUBLIC "-//W3C//DTD SVG 1.1//EN"
  "http://www.w3.org/Graphics/SVG/1.1/DTD/svg11.dtd">
<svg xmlns:xlink="http://www.w3.org/1999/xlink" width="216pt" height="198pt" viewBox="0 0 216 198" xmlns="http://www.w3.org/2000/svg" version="1.1">
 <metadata>
  <rdf:RDF xmlns:dc="http://purl.org/dc/elements/1.1/" xmlns:cc="http://creativecommons.org/ns#" xmlns:rdf="http://www.w3.org/1999/02/22-rdf-syntax-ns#">
   <cc:Work>
    <dc:type rdf:resource="http://purl.org/dc/dcmitype/StillImage"/>
    <dc:date>2023-05-26T14:48:04.079283</dc:date>
    <dc:format>image/svg+xml</dc:format>
    <dc:creator>
     <cc:Agent>
      <dc:title>Matplotlib v3.5.2, https://matplotlib.org/</dc:title>
     </cc:Agent>
    </dc:creator>
   </cc:Work>
  </rdf:RDF>
 </metadata>
 <defs>
  <style type="text/css">*{stroke-linejoin: round; stroke-linecap: butt}</style>
 </defs>
 <g id="figure_1">
  <g id="patch_1">
   <path d="M 0 198 
L 216 198 
L 216 0 
L 0 0 
z
" style="fill: #ffffff"/>
  </g>
  <g id="axes_1">
   <g id="patch_2">
    <path d="M 37.067331 169.788407 
L 212.99976 169.788407 
L 212.99976 3.00024 
L 37.067331 3.00024 
z
" style="fill: #ffffff"/>
   </g>
   <g id="matplotlib.axis_1">
    <g id="xtick_1">
     <g id="line2d_1">
      <defs>
       <path id="m188be11d21" d="M 0 0 
L 0 -3.5 
" style="stroke: #000000; stroke-width: 0.8"/>
      </defs>
      <g>
       <use xlink:href="#m188be11d21" x="72.516402" y="169.788407" style="stroke: #000000; stroke-width: 0.8"/>
      </g>
     </g>
     <g id="text_1">
      <!-- $\mathdefault{5}$ -->
      <g transform="translate(70.025735 180.206905)scale(0.1 -0.1)">
       <defs>
        <path id="CMR17-35" d="M 730 3750 
C 794 3724 1056 3641 1325 3641 
C 1920 3641 2246 3961 2432 4140 
C 2432 4191 2432 4224 2394 4224 
C 2387 4224 2374 4224 2323 4198 
C 2099 4102 1837 4032 1517 4032 
C 1325 4032 1037 4055 723 4191 
C 653 4224 640 4224 634 4224 
C 602 4224 595 4217 595 4090 
L 595 2231 
C 595 2113 595 2080 659 2080 
C 691 2080 704 2093 736 2139 
C 941 2435 1222 2560 1542 2560 
C 1766 2560 2246 2415 2246 1293 
C 2246 1087 2246 716 2054 422 
C 1894 159 1645 25 1370 25 
C 947 25 518 319 403 812 
C 429 806 480 793 506 793 
C 589 793 749 838 749 1036 
C 749 1209 627 1280 506 1280 
C 358 1280 262 1190 262 1011 
C 262 454 704 -128 1382 -128 
C 2042 -128 2669 441 2669 1267 
C 2669 2054 2170 2662 1549 2662 
C 1222 2662 947 2540 730 2304 
L 730 3750 
z
" transform="scale(0.015625)"/>
       </defs>
       <use xlink:href="#CMR17-35" transform="scale(0.996264)"/>
      </g>
     </g>
    </g>
    <g id="xtick_2">
     <g id="line2d_2">
      <g>
       <use xlink:href="#m188be11d21" x="119.543117" y="169.788407" style="stroke: #000000; stroke-width: 0.8"/>
      </g>
     </g>
     <g id="text_2">
      <!-- $\mathdefault{10}$ -->
      <g transform="translate(114.561782 180.206905)scale(0.1 -0.1)">
       <defs>
        <path id="CMR17-31" d="M 1702 4083 
C 1702 4217 1696 4224 1606 4224 
C 1357 3927 979 3833 621 3820 
C 602 3820 570 3820 563 3808 
C 557 3795 557 3782 557 3648 
C 755 3648 1088 3686 1344 3839 
L 1344 467 
C 1344 243 1331 166 781 166 
L 589 166 
L 589 0 
C 896 6 1216 12 1523 12 
C 1830 12 2150 6 2458 0 
L 2458 166 
L 2266 166 
C 1715 166 1702 236 1702 467 
L 1702 4083 
z
" transform="scale(0.015625)"/>
        <path id="CMR17-30" d="M 2688 2038 
C 2688 2430 2682 3099 2413 3613 
C 2176 4063 1798 4224 1466 4224 
C 1158 4224 768 4082 525 3620 
C 269 3137 243 2539 243 2038 
C 243 1671 250 1112 448 623 
C 723 -39 1216 -128 1466 -128 
C 1760 -128 2208 -7 2470 604 
C 2662 1048 2688 1568 2688 2038 
z
M 1466 -26 
C 1056 -26 813 328 723 816 
C 653 1196 653 1749 653 2109 
C 653 2604 653 3015 736 3407 
C 858 3954 1216 4121 1466 4121 
C 1728 4121 2067 3947 2189 3420 
C 2272 3054 2278 2623 2278 2109 
C 2278 1691 2278 1176 2202 797 
C 2067 96 1690 -26 1466 -26 
z
" transform="scale(0.015625)"/>
       </defs>
       <use xlink:href="#CMR17-31" transform="scale(0.996264)"/>
       <use xlink:href="#CMR17-30" transform="translate(45.690477 0)scale(0.996264)"/>
      </g>
     </g>
    </g>
    <g id="xtick_3">
     <g id="line2d_3">
      <g>
       <use xlink:href="#m188be11d21" x="166.569831" y="169.788407" style="stroke: #000000; stroke-width: 0.8"/>
      </g>
     </g>
     <g id="text_3">
      <!-- $\mathdefault{15}$ -->
      <g transform="translate(161.588496 180.206905)scale(0.1 -0.1)">
       <use xlink:href="#CMR17-31" transform="scale(0.996264)"/>
       <use xlink:href="#CMR17-35" transform="translate(45.690477 0)scale(0.996264)"/>
      </g>
     </g>
    </g>
    <g id="text_4">
     <!-- $M_\infty$ -->
     <g transform="translate(116.229737 193.062582)scale(0.1 -0.1)">
      <defs>
       <path id="CMMI12-4d" d="M 5811 3886 
C 5869 4102 5882 4166 6336 4166 
C 6458 4166 6515 4166 6515 4287 
C 6515 4352 6470 4352 6349 4352 
L 5581 4352 
C 5421 4352 5414 4345 5344 4243 
L 3008 567 
L 2528 4211 
C 2509 4352 2502 4352 2336 4352 
L 1542 4352 
C 1421 4352 1363 4352 1363 4230 
C 1363 4166 1421 4166 1517 4166 
C 1907 4166 1907 4115 1907 4045 
C 1907 4032 1907 3994 1882 3898 
L 1062 650 
C 986 344 838 204 410 185 
C 390 185 314 179 314 70 
C 314 0 371 0 397 0 
C 525 0 851 12 979 12 
L 1286 12 
C 1376 12 1485 0 1574 0 
C 1619 0 1690 0 1690 121 
C 1690 179 1626 185 1600 185 
C 1389 191 1184 230 1184 459 
C 1184 523 1184 529 1210 618 
L 2093 4128 
L 2099 4128 
L 2630 172 
C 2650 19 2656 0 2714 0 
C 2784 0 2816 51 2848 108 
L 5421 4159 
L 5427 4159 
L 4499 472 
C 4442 249 4429 185 3981 185 
C 3859 185 3795 185 3795 70 
C 3795 0 3853 0 3891 0 
C 4000 0 4128 12 4237 12 
L 4992 12 
C 5101 12 5235 0 5344 0 
C 5395 0 5466 0 5466 121 
C 5466 185 5408 185 5312 185 
C 4922 185 4922 236 4922 300 
C 4922 306 4922 351 4934 402 
L 5811 3886 
z
" transform="scale(0.015625)"/>
       <path id="CMSY10-31" d="M 3251 1736 
C 2906 2170 2829 2266 2630 2426 
C 2272 2713 1914 2828 1587 2828 
C 838 2828 352 2126 352 1379 
C 352 645 826 -64 1562 -64 
C 2298 -64 2829 517 3142 1028 
C 3488 594 3565 498 3763 338 
C 4122 51 4480 -64 4806 -64 
C 5555 -64 6042 638 6042 1385 
C 6042 2119 5568 2828 4832 2828 
C 4096 2828 3565 2247 3251 1736 
z
M 3418 1519 
C 3680 1979 4154 2624 4877 2624 
C 5555 2624 5901 1960 5901 1385 
C 5901 760 5472 242 4909 242 
C 4538 242 4250 511 4115 645 
C 3955 817 3808 1015 3418 1519 
z
M 2976 1245 
C 2714 785 2240 140 1517 140 
C 838 140 493 804 493 1379 
C 493 2004 922 2521 1485 2521 
C 1856 2521 2144 2253 2278 2119 
C 2438 1947 2586 1749 2976 1245 
z
" transform="scale(0.015625)"/>
      </defs>
      <use xlink:href="#CMMI12-4d" transform="scale(0.996264)"/>
      <use xlink:href="#CMSY10-31" transform="translate(94.373425 -14.943915)scale(0.697382)"/>
     </g>
    </g>
   </g>
   <g id="matplotlib.axis_2">
    <g id="ytick_1">
     <g id="line2d_4">
      <defs>
       <path id="mb89307e403" d="M 0 0 
L 3.5 0 
" style="stroke: #000000; stroke-width: 0.8"/>
      </defs>
      <g>
       <use xlink:href="#mb89307e403" x="37.067331" y="166.93148" style="stroke: #000000; stroke-width: 0.8"/>
      </g>
     </g>
     <g id="text_5">
      <!-- $\mathdefault{0.88}$ -->
      <g transform="translate(15.855917 170.390729)scale(0.1 -0.1)">
       <defs>
        <path id="CMMI12-3a" d="M 1178 307 
C 1178 492 1024 620 870 620 
C 685 620 557 467 557 313 
C 557 128 710 0 864 0 
C 1050 0 1178 153 1178 307 
z
" transform="scale(0.015625)"/>
        <path id="CMR17-38" d="M 1741 2289 
C 2144 2494 2554 2803 2554 3298 
C 2554 3884 1990 4224 1472 4224 
C 890 4224 378 3800 378 3215 
C 378 3054 416 2777 666 2533 
C 730 2469 998 2276 1171 2154 
C 883 2006 211 1652 211 945 
C 211 282 838 -128 1459 -128 
C 2144 -128 2720 366 2720 1022 
C 2720 1607 2330 1877 2074 2051 
L 1741 2289 
z
M 902 2855 
C 851 2887 595 3086 595 3388 
C 595 3781 998 4076 1459 4076 
C 1965 4076 2336 3716 2336 3298 
C 2336 2700 1670 2359 1638 2359 
C 1632 2359 1626 2359 1574 2398 
L 902 2855 
z
M 2080 1536 
C 2176 1466 2483 1253 2483 861 
C 2483 385 2010 25 1472 25 
C 890 25 448 443 448 951 
C 448 1459 838 1884 1280 2083 
L 2080 1536 
z
" transform="scale(0.015625)"/>
       </defs>
       <use xlink:href="#CMR17-30" transform="scale(0.996264)"/>
       <use xlink:href="#CMMI12-3a" transform="translate(45.690477 0)scale(0.996264)"/>
       <use xlink:href="#CMR17-38" transform="translate(72.787654 0)scale(0.996264)"/>
       <use xlink:href="#CMR17-38" transform="translate(118.478131 0)scale(0.996264)"/>
      </g>
     </g>
    </g>
    <g id="ytick_2">
     <g id="line2d_5">
      <g>
       <use xlink:href="#mb89307e403" x="37.067331" y="143.302689" style="stroke: #000000; stroke-width: 0.8"/>
      </g>
     </g>
     <g id="text_6">
      <!-- $\mathdefault{0.90}$ -->
      <g transform="translate(15.855917 146.761938)scale(0.1 -0.1)">
       <defs>
        <path id="CMR17-39" d="M 2253 1871 
C 2253 448 1670 25 1190 25 
C 1043 25 685 43 538 281 
C 704 256 826 345 826 505 
C 826 678 685 736 595 736 
C 538 736 365 710 365 492 
C 365 68 742 -128 1203 -128 
C 1939 -128 2688 665 2688 2090 
C 2688 3857 1971 4224 1485 4224 
C 851 4224 243 3664 243 2800 
C 243 2000 762 1408 1414 1408 
C 1952 1408 2189 1910 2253 2122 
L 2253 1871 
z
M 1427 1510 
C 1254 1510 1011 1542 813 1929 
C 678 2181 678 2477 678 2793 
C 678 3174 678 3438 858 3722 
C 947 3857 1114 4076 1485 4076 
C 2240 4076 2240 2909 2240 2651 
C 2240 2193 2035 1510 1427 1510 
z
" transform="scale(0.015625)"/>
       </defs>
       <use xlink:href="#CMR17-30" transform="scale(0.996264)"/>
       <use xlink:href="#CMMI12-3a" transform="translate(45.690477 0)scale(0.996264)"/>
       <use xlink:href="#CMR17-39" transform="translate(72.787654 0)scale(0.996264)"/>
       <use xlink:href="#CMR17-30" transform="translate(118.478131 0)scale(0.996264)"/>
      </g>
     </g>
    </g>
    <g id="ytick_3">
     <g id="line2d_6">
      <g>
       <use xlink:href="#mb89307e403" x="37.067331" y="119.673898" style="stroke: #000000; stroke-width: 0.8"/>
      </g>
     </g>
     <g id="text_7">
      <!-- $\mathdefault{0.92}$ -->
      <g transform="translate(15.855917 123.133147)scale(0.1 -0.1)">
       <defs>
        <path id="CMR17-32" d="M 2669 990 
L 2554 990 
C 2490 537 2438 460 2413 422 
C 2381 371 1920 371 1830 371 
L 602 371 
C 832 620 1280 1073 1824 1596 
C 2214 1966 2669 2400 2669 3033 
C 2669 3788 2067 4224 1395 4224 
C 691 4224 262 3603 262 3027 
C 262 2777 448 2745 525 2745 
C 589 2745 781 2783 781 3007 
C 781 3206 614 3264 525 3264 
C 486 3264 448 3257 422 3244 
C 544 3788 915 4057 1306 4057 
C 1862 4057 2227 3616 2227 3033 
C 2227 2477 1901 1998 1536 1583 
L 262 147 
L 262 0 
L 2515 0 
L 2669 990 
z
" transform="scale(0.015625)"/>
       </defs>
       <use xlink:href="#CMR17-30" transform="scale(0.996264)"/>
       <use xlink:href="#CMMI12-3a" transform="translate(45.690477 0)scale(0.996264)"/>
       <use xlink:href="#CMR17-39" transform="translate(72.787654 0)scale(0.996264)"/>
       <use xlink:href="#CMR17-32" transform="translate(118.478131 0)scale(0.996264)"/>
      </g>
     </g>
    </g>
    <g id="ytick_4">
     <g id="line2d_7">
      <g>
       <use xlink:href="#mb89307e403" x="37.067331" y="96.045107" style="stroke: #000000; stroke-width: 0.8"/>
      </g>
     </g>
     <g id="text_8">
      <!-- $\mathdefault{0.94}$ -->
      <g transform="translate(15.855917 99.504357)scale(0.1 -0.1)">
       <defs>
        <path id="CMR17-34" d="M 2150 4147 
C 2150 4281 2144 4288 2029 4288 
L 128 1254 
L 128 1088 
L 1779 1088 
L 1779 460 
C 1779 230 1766 166 1318 166 
L 1197 166 
L 1197 0 
C 1402 12 1747 12 1965 12 
C 2182 12 2528 12 2733 0 
L 2733 166 
L 2611 166 
C 2163 166 2150 230 2150 460 
L 2150 1088 
L 2803 1088 
L 2803 1254 
L 2150 1254 
L 2150 4147 
z
M 1798 3723 
L 1798 1254 
L 256 1254 
L 1798 3723 
z
" transform="scale(0.015625)"/>
       </defs>
       <use xlink:href="#CMR17-30" transform="scale(0.996264)"/>
       <use xlink:href="#CMMI12-3a" transform="translate(45.690477 0)scale(0.996264)"/>
       <use xlink:href="#CMR17-39" transform="translate(72.787654 0)scale(0.996264)"/>
       <use xlink:href="#CMR17-34" transform="translate(118.478131 0)scale(0.996264)"/>
      </g>
     </g>
    </g>
    <g id="ytick_5">
     <g id="line2d_8">
      <g>
       <use xlink:href="#mb89307e403" x="37.067331" y="72.416316" style="stroke: #000000; stroke-width: 0.8"/>
      </g>
     </g>
     <g id="text_9">
      <!-- $\mathdefault{0.96}$ -->
      <g transform="translate(15.855917 75.875566)scale(0.1 -0.1)">
       <defs>
        <path id="CMR17-36" d="M 678 2198 
C 678 3712 1395 4076 1811 4076 
C 1946 4076 2272 4049 2400 3782 
C 2298 3782 2106 3782 2106 3558 
C 2106 3385 2246 3328 2336 3328 
C 2394 3328 2566 3353 2566 3571 
C 2566 3987 2246 4224 1805 4224 
C 1043 4224 243 3411 243 2011 
C 243 257 966 -128 1478 -128 
C 2099 -128 2688 431 2688 1295 
C 2688 2101 2170 2688 1517 2688 
C 1126 2688 838 2430 678 1979 
L 678 2198 
z
M 1478 25 
C 691 25 691 1212 691 1450 
C 691 1914 909 2585 1504 2585 
C 1613 2585 1926 2585 2138 2140 
C 2253 1889 2253 1624 2253 1302 
C 2253 954 2253 696 2118 438 
C 1978 173 1773 25 1478 25 
z
" transform="scale(0.015625)"/>
       </defs>
       <use xlink:href="#CMR17-30" transform="scale(0.996264)"/>
       <use xlink:href="#CMMI12-3a" transform="translate(45.690477 0)scale(0.996264)"/>
       <use xlink:href="#CMR17-39" transform="translate(72.787654 0)scale(0.996264)"/>
       <use xlink:href="#CMR17-36" transform="translate(118.478131 0)scale(0.996264)"/>
      </g>
     </g>
    </g>
    <g id="ytick_6">
     <g id="line2d_9">
      <g>
       <use xlink:href="#mb89307e403" x="37.067331" y="48.787526" style="stroke: #000000; stroke-width: 0.8"/>
      </g>
     </g>
     <g id="text_10">
      <!-- $\mathdefault{0.98}$ -->
      <g transform="translate(15.855917 52.246775)scale(0.1 -0.1)">
       <use xlink:href="#CMR17-30" transform="scale(0.996264)"/>
       <use xlink:href="#CMMI12-3a" transform="translate(45.690477 0)scale(0.996264)"/>
       <use xlink:href="#CMR17-39" transform="translate(72.787654 0)scale(0.996264)"/>
       <use xlink:href="#CMR17-38" transform="translate(118.478131 0)scale(0.996264)"/>
      </g>
     </g>
    </g>
    <g id="ytick_7">
     <g id="line2d_10">
      <g>
       <use xlink:href="#mb89307e403" x="37.067331" y="25.158735" style="stroke: #000000; stroke-width: 0.8"/>
      </g>
     </g>
     <g id="text_11">
      <!-- $\mathdefault{1.00}$ -->
      <g transform="translate(15.855917 28.617984)scale(0.1 -0.1)">
       <use xlink:href="#CMR17-31" transform="scale(0.996264)"/>
       <use xlink:href="#CMMI12-3a" transform="translate(45.690477 0)scale(0.996264)"/>
       <use xlink:href="#CMR17-30" transform="translate(72.787654 0)scale(0.996264)"/>
       <use xlink:href="#CMR17-30" transform="translate(118.478131 0)scale(0.996264)"/>
      </g>
     </g>
    </g>
    <g id="text_12">
     <!-- $C_d$ -->
     <g transform="translate(9.918738 92.028241)rotate(-90)scale(0.1 -0.1)">
      <defs>
       <path id="CMMI12-43" d="M 4781 4422 
C 4781 4480 4736 4480 4723 4480 
C 4710 4480 4685 4480 4634 4415 
L 4192 3881 
C 3968 4262 3616 4480 3136 4480 
C 1754 4480 320 3087 320 1594 
C 320 533 1069 -128 2003 -128 
C 2515 -128 2963 89 3334 400 
C 3891 864 4058 1480 4058 1531 
C 4058 1588 4006 1588 3987 1588 
C 3930 1588 3923 1550 3910 1524 
C 3616 533 2752 57 2112 57 
C 1434 57 845 489 845 1391 
C 845 1594 909 2699 1632 3531 
C 1984 3938 2586 4294 3194 4294 
C 3898 4294 4211 3716 4211 3068 
C 4211 2903 4192 2763 4192 2737 
C 4192 2680 4256 2680 4275 2680 
C 4346 2680 4352 2687 4378 2801 
L 4781 4422 
z
" transform="scale(0.015625)"/>
       <path id="CMMI12-64" d="M 3219 4255 
C 3226 4281 3238 4319 3238 4351 
C 3238 4416 3174 4416 3162 4416 
C 3155 4416 2842 4390 2810 4383 
C 2701 4377 2605 4364 2490 4358 
C 2330 4345 2285 4339 2285 4223 
C 2285 4159 2336 4159 2426 4159 
C 2739 4159 2746 4103 2746 4040 
C 2746 4002 2733 3951 2726 3932 
L 2336 2394 
C 2266 2560 2093 2816 1760 2816 
C 1037 2816 256 1883 256 938 
C 256 306 627 -64 1062 -64 
C 1414 -64 1715 210 1894 421 
C 1958 44 2259 -64 2451 -64 
C 2643 -64 2797 51 2912 281 
C 3014 498 3104 887 3104 913 
C 3104 945 3078 970 3040 970 
C 2982 970 2976 938 2950 842 
C 2854 466 2733 64 2470 64 
C 2285 64 2272 230 2272 357 
C 2272 383 2272 517 2317 696 
L 3219 4255 
z
M 1926 759 
C 1894 651 1894 638 1805 517 
C 1664 338 1382 64 1082 64 
C 819 64 672 300 672 676 
C 672 1028 870 1743 992 2011 
C 1210 2458 1510 2687 1760 2687 
C 2182 2687 2266 2164 2266 2113 
C 2266 2107 2246 2024 2240 2011 
L 1926 759 
z
" transform="scale(0.015625)"/>
      </defs>
      <use xlink:href="#CMMI12-43" transform="scale(0.996264)"/>
      <use xlink:href="#CMMI12-64" transform="translate(69.792037 -14.943915)scale(0.697382)"/>
     </g>
    </g>
   </g>
   <g id="line2d_11">
    <defs>
     <path id="mb284461327" d="M -2.5 -4.330127 
L -5 -0 
L -2.5 4.330127 
L 2.5 4.330127 
L 5 0 
L 2.5 -4.330127 
z
" style="stroke: #000000; stroke-linejoin: miter"/>
    </defs>
    <g clip-path="url(#p4e1121c1ee)">
     <use xlink:href="#mb284461327" x="56.999974" y="162.207126" style="fill-opacity: 0; stroke: #000000; stroke-linejoin: miter"/>
     <use xlink:href="#mb284461327" x="66.548545" y="146.062942" style="fill-opacity: 0; stroke: #000000; stroke-linejoin: miter"/>
     <use xlink:href="#mb284461327" x="76.097117" y="138.060354" style="fill-opacity: 0; stroke: #000000; stroke-linejoin: miter"/>
     <use xlink:href="#mb284461327" x="87.555403" y="132.862002" style="fill-opacity: 0; stroke: #000000; stroke-linejoin: miter"/>
     <use xlink:href="#mb284461327" x="102.355688" y="129.255549" style="fill-opacity: 0; stroke: #000000; stroke-linejoin: miter"/>
     <use xlink:href="#mb284461327" x="116.201117" y="127.346623" style="fill-opacity: 0; stroke: #000000; stroke-linejoin: miter"/>
     <use xlink:href="#mb284461327" x="129.569117" y="126.175409" style="fill-opacity: 0; stroke: #000000; stroke-linejoin: miter"/>
     <use xlink:href="#mb284461327" x="140.072546" y="125.52896" style="fill-opacity: 0; stroke: #000000; stroke-linejoin: miter"/>
     <use xlink:href="#mb284461327" x="152.485688" y="124.96124" style="fill-opacity: 0; stroke: #000000; stroke-linejoin: miter"/>
     <use xlink:href="#mb284461327" x="162.989117" y="124.596539" style="fill-opacity: 0; stroke: #000000; stroke-linejoin: miter"/>
     <use xlink:href="#mb284461327" x="175.40226" y="124.257118" style="fill-opacity: 0; stroke: #000000; stroke-linejoin: miter"/>
     <use xlink:href="#mb284461327" x="188.77026" y="123.977271" style="fill-opacity: 0; stroke: #000000; stroke-linejoin: miter"/>
     <use xlink:href="#mb284461327" x="198.79626" y="123.807279" style="fill-opacity: 0; stroke: #000000; stroke-linejoin: miter"/>
     <use xlink:href="#mb284461327" x="205.002831" y="123.717002" style="fill-opacity: 0; stroke: #000000; stroke-linejoin: miter"/>
    </g>
   </g>
   <g id="line2d_12">
    <defs>
     <path id="m36b0bf0240" d="M 0 5 
C 1.326016 5 2.597899 4.473168 3.535534 3.535534 
C 4.473168 2.597899 5 1.326016 5 0 
C 5 -1.326016 4.473168 -2.597899 3.535534 -3.535534 
C 2.597899 -4.473168 1.326016 -5 0 -5 
C -1.326016 -5 -2.597899 -4.473168 -3.535534 -3.535534 
C -4.473168 -2.597899 -5 -1.326016 -5 0 
C -5 1.326016 -4.473168 2.597899 -3.535534 3.535534 
C -2.597899 4.473168 -1.326016 5 0 5 
z
" style="stroke: #000000"/>
    </defs>
    <g clip-path="url(#p4e1121c1ee)">
     <use xlink:href="#m36b0bf0240" x="56.999974" y="10.58152" style="fill-opacity: 0; stroke: #000000"/>
     <use xlink:href="#m36b0bf0240" x="66.548545" y="52.812317" style="fill-opacity: 0; stroke: #000000"/>
     <use xlink:href="#m36b0bf0240" x="76.097117" y="75.093613" style="fill-opacity: 0; stroke: #000000"/>
     <use xlink:href="#m36b0bf0240" x="87.555403" y="90.196155" style="fill-opacity: 0; stroke: #000000"/>
     <use xlink:href="#m36b0bf0240" x="102.355688" y="101.015022" style="fill-opacity: 0; stroke: #000000"/>
     <use xlink:href="#m36b0bf0240" x="116.201117" y="106.887497" style="fill-opacity: 0; stroke: #000000"/>
     <use xlink:href="#m36b0bf0240" x="129.569117" y="110.542328" style="fill-opacity: 0; stroke: #000000"/>
     <use xlink:href="#m36b0bf0240" x="140.072546" y="112.585544" style="fill-opacity: 0; stroke: #000000"/>
     <use xlink:href="#m36b0bf0240" x="152.485688" y="114.389968" style="fill-opacity: 0; stroke: #000000"/>
     <use xlink:href="#m36b0bf0240" x="162.989117" y="115.559139" style="fill-opacity: 0; stroke: #000000"/>
     <use xlink:href="#m36b0bf0240" x="175.40226" y="116.639723" style="fill-opacity: 0; stroke: #000000"/>
     <use xlink:href="#m36b0bf0240" x="188.77026" y="117.544259" style="fill-opacity: 0; stroke: #000000"/>
     <use xlink:href="#m36b0bf0240" x="198.79626" y="118.091487" style="fill-opacity: 0; stroke: #000000"/>
     <use xlink:href="#m36b0bf0240" x="205.002831" y="118.385417" style="fill-opacity: 0; stroke: #000000"/>
    </g>
   </g>
   <g id="line2d_13">
    <defs>
     <path id="m97d52dd31d" d="M -1.75 -3.031089 
L -3.5 -0 
L -1.75 3.031089 
L 1.75 3.031089 
L 3.5 0 
L 1.75 -3.031089 
z
" style="stroke: #000000; stroke-linejoin: miter"/>
    </defs>
    <g clip-path="url(#p4e1121c1ee)">
     <use xlink:href="#m97d52dd31d" x="56.999974" y="162.207126" style="fill-opacity: 0; stroke: #000000; stroke-linejoin: miter"/>
     <use xlink:href="#m97d52dd31d" x="66.548545" y="146.062942" style="fill-opacity: 0; stroke: #000000; stroke-linejoin: miter"/>
     <use xlink:href="#m97d52dd31d" x="76.097117" y="138.060354" style="fill-opacity: 0; stroke: #000000; stroke-linejoin: miter"/>
     <use xlink:href="#m97d52dd31d" x="87.555403" y="132.862002" style="fill-opacity: 0; stroke: #000000; stroke-linejoin: miter"/>
     <use xlink:href="#m97d52dd31d" x="102.355688" y="129.255549" style="fill-opacity: 0; stroke: #000000; stroke-linejoin: miter"/>
     <use xlink:href="#m97d52dd31d" x="116.201117" y="127.346623" style="fill-opacity: 0; stroke: #000000; stroke-linejoin: miter"/>
     <use xlink:href="#m97d52dd31d" x="129.569117" y="126.175409" style="fill-opacity: 0; stroke: #000000; stroke-linejoin: miter"/>
     <use xlink:href="#m97d52dd31d" x="140.072546" y="125.52896" style="fill-opacity: 0; stroke: #000000; stroke-linejoin: miter"/>
     <use xlink:href="#m97d52dd31d" x="152.485688" y="124.96124" style="fill-opacity: 0; stroke: #000000; stroke-linejoin: miter"/>
     <use xlink:href="#m97d52dd31d" x="162.989117" y="124.596539" style="fill-opacity: 0; stroke: #000000; stroke-linejoin: miter"/>
     <use xlink:href="#m97d52dd31d" x="175.40226" y="124.257118" style="fill-opacity: 0; stroke: #000000; stroke-linejoin: miter"/>
     <use xlink:href="#m97d52dd31d" x="188.77026" y="123.977271" style="fill-opacity: 0; stroke: #000000; stroke-linejoin: miter"/>
     <use xlink:href="#m97d52dd31d" x="198.79626" y="123.807279" style="fill-opacity: 0; stroke: #000000; stroke-linejoin: miter"/>
     <use xlink:href="#m97d52dd31d" x="205.002831" y="123.717002" style="fill-opacity: 0; stroke: #000000; stroke-linejoin: miter"/>
    </g>
   </g>
   <g id="line2d_14">
    <defs>
     <path id="mfbce482650" d="M 0 3.5 
C 0.928211 3.5 1.81853 3.131218 2.474874 2.474874 
C 3.131218 1.81853 3.5 0.928211 3.5 0 
C 3.5 -0.928211 3.131218 -1.81853 2.474874 -2.474874 
C 1.81853 -3.131218 0.928211 -3.5 0 -3.5 
C -0.928211 -3.5 -1.81853 -3.131218 -2.474874 -2.474874 
C -3.131218 -1.81853 -3.5 -0.928211 -3.5 0 
C -3.5 0.928211 -3.131218 1.81853 -2.474874 2.474874 
C -1.81853 3.131218 -0.928211 3.5 0 3.5 
z
" style="stroke: #000000"/>
    </defs>
    <g clip-path="url(#p4e1121c1ee)">
     <use xlink:href="#mfbce482650" x="56.999974" y="10.58152" style="fill-opacity: 0; stroke: #000000"/>
     <use xlink:href="#mfbce482650" x="66.548545" y="52.812317" style="fill-opacity: 0; stroke: #000000"/>
     <use xlink:href="#mfbce482650" x="76.097117" y="75.093613" style="fill-opacity: 0; stroke: #000000"/>
     <use xlink:href="#mfbce482650" x="87.555403" y="90.196155" style="fill-opacity: 0; stroke: #000000"/>
     <use xlink:href="#mfbce482650" x="102.355688" y="101.015022" style="fill-opacity: 0; stroke: #000000"/>
     <use xlink:href="#mfbce482650" x="116.201117" y="106.887497" style="fill-opacity: 0; stroke: #000000"/>
     <use xlink:href="#mfbce482650" x="129.569117" y="110.542328" style="fill-opacity: 0; stroke: #000000"/>
     <use xlink:href="#mfbce482650" x="140.072546" y="112.585544" style="fill-opacity: 0; stroke: #000000"/>
     <use xlink:href="#mfbce482650" x="152.485688" y="114.389968" style="fill-opacity: 0; stroke: #000000"/>
     <use xlink:href="#mfbce482650" x="162.989117" y="115.559139" style="fill-opacity: 0; stroke: #000000"/>
     <use xlink:href="#mfbce482650" x="175.40226" y="116.639723" style="fill-opacity: 0; stroke: #000000"/>
     <use xlink:href="#mfbce482650" x="188.77026" y="117.544259" style="fill-opacity: 0; stroke: #000000"/>
     <use xlink:href="#mfbce482650" x="198.79626" y="118.091487" style="fill-opacity: 0; stroke: #000000"/>
     <use xlink:href="#mfbce482650" x="205.002831" y="118.385417" style="fill-opacity: 0; stroke: #000000"/>
    </g>
   </g>
   <g id="line2d_15">
    <defs>
     <path id="mf34458e4e7" d="M -1 -1.732051 
L -2 -0 
L -1 1.732051 
L 1 1.732051 
L 2 0 
L 1 -1.732051 
z
" style="stroke: #000000; stroke-linejoin: miter"/>
    </defs>
    <g clip-path="url(#p4e1121c1ee)">
     <use xlink:href="#mf34458e4e7" x="56.999974" y="162.207126" style="fill-opacity: 0; stroke: #000000; stroke-linejoin: miter"/>
     <use xlink:href="#mf34458e4e7" x="66.548545" y="146.062942" style="fill-opacity: 0; stroke: #000000; stroke-linejoin: miter"/>
     <use xlink:href="#mf34458e4e7" x="76.097117" y="138.060354" style="fill-opacity: 0; stroke: #000000; stroke-linejoin: miter"/>
     <use xlink:href="#mf34458e4e7" x="87.555403" y="132.862002" style="fill-opacity: 0; stroke: #000000; stroke-linejoin: miter"/>
     <use xlink:href="#mf34458e4e7" x="102.355688" y="129.255549" style="fill-opacity: 0; stroke: #000000; stroke-linejoin: miter"/>
     <use xlink:href="#mf34458e4e7" x="116.201117" y="127.346623" style="fill-opacity: 0; stroke: #000000; stroke-linejoin: miter"/>
     <use xlink:href="#mf34458e4e7" x="129.569117" y="126.175409" style="fill-opacity: 0; stroke: #000000; stroke-linejoin: miter"/>
     <use xlink:href="#mf34458e4e7" x="140.072546" y="125.52896" style="fill-opacity: 0; stroke: #000000; stroke-linejoin: miter"/>
     <use xlink:href="#mf34458e4e7" x="152.485688" y="124.96124" style="fill-opacity: 0; stroke: #000000; stroke-linejoin: miter"/>
     <use xlink:href="#mf34458e4e7" x="162.989117" y="124.596539" style="fill-opacity: 0; stroke: #000000; stroke-linejoin: miter"/>
     <use xlink:href="#mf34458e4e7" x="175.40226" y="124.257118" style="fill-opacity: 0; stroke: #000000; stroke-linejoin: miter"/>
     <use xlink:href="#mf34458e4e7" x="188.77026" y="123.977271" style="fill-opacity: 0; stroke: #000000; stroke-linejoin: miter"/>
     <use xlink:href="#mf34458e4e7" x="198.79626" y="123.807279" style="fill-opacity: 0; stroke: #000000; stroke-linejoin: miter"/>
     <use xlink:href="#mf34458e4e7" x="205.002831" y="123.717002" style="fill-opacity: 0; stroke: #000000; stroke-linejoin: miter"/>
    </g>
   </g>
   <g id="line2d_16">
    <defs>
     <path id="mf1bec0223a" d="M 0 2 
C 0.530406 2 1.03916 1.789267 1.414214 1.414214 
C 1.789267 1.03916 2 0.530406 2 0 
C 2 -0.530406 1.789267 -1.03916 1.414214 -1.414214 
C 1.03916 -1.789267 0.530406 -2 0 -2 
C -0.530406 -2 -1.03916 -1.789267 -1.414214 -1.414214 
C -1.789267 -1.03916 -2 -0.530406 -2 0 
C -2 0.530406 -1.789267 1.03916 -1.414214 1.414214 
C -1.03916 1.789267 -0.530406 2 0 2 
z
" style="stroke: #000000"/>
    </defs>
    <g clip-path="url(#p4e1121c1ee)">
     <use xlink:href="#mf1bec0223a" x="56.999974" y="10.58152" style="fill-opacity: 0; stroke: #000000"/>
     <use xlink:href="#mf1bec0223a" x="66.548545" y="52.812317" style="fill-opacity: 0; stroke: #000000"/>
     <use xlink:href="#mf1bec0223a" x="76.097117" y="75.093613" style="fill-opacity: 0; stroke: #000000"/>
     <use xlink:href="#mf1bec0223a" x="87.555403" y="90.196155" style="fill-opacity: 0; stroke: #000000"/>
     <use xlink:href="#mf1bec0223a" x="102.355688" y="101.015022" style="fill-opacity: 0; stroke: #000000"/>
     <use xlink:href="#mf1bec0223a" x="116.201117" y="106.887497" style="fill-opacity: 0; stroke: #000000"/>
     <use xlink:href="#mf1bec0223a" x="129.569117" y="110.542328" style="fill-opacity: 0; stroke: #000000"/>
     <use xlink:href="#mf1bec0223a" x="140.072546" y="112.585544" style="fill-opacity: 0; stroke: #000000"/>
     <use xlink:href="#mf1bec0223a" x="152.485688" y="114.389968" style="fill-opacity: 0; stroke: #000000"/>
     <use xlink:href="#mf1bec0223a" x="162.989117" y="115.559139" style="fill-opacity: 0; stroke: #000000"/>
     <use xlink:href="#mf1bec0223a" x="175.40226" y="116.639723" style="fill-opacity: 0; stroke: #000000"/>
     <use xlink:href="#mf1bec0223a" x="188.77026" y="117.544259" style="fill-opacity: 0; stroke: #000000"/>
     <use xlink:href="#mf1bec0223a" x="198.79626" y="118.091487" style="fill-opacity: 0; stroke: #000000"/>
     <use xlink:href="#mf1bec0223a" x="205.002831" y="118.385417" style="fill-opacity: 0; stroke: #000000"/>
    </g>
   </g>
   <g id="line2d_17">
    <path d="M 45.06426 70.885095 
L 56.999974 73.759056 
L 66.548545 85.877982 
L 76.097117 101.065583 
L 87.555403 122.359378 
L 102.355688 143.598653 
L 116.201117 146.44146 
L 129.569117 127.811337 
L 140.072546 115.365293 
L 152.485688 102.888095 
L 162.989117 93.510725 
L 175.40226 84.102201 
L 188.77026 80.815449 
L 198.79626 77.583216 
L 205.002831 77.481965 
" clip-path="url(#p4e1121c1ee)" style="fill: none; stroke: #000000; stroke-width: 1.5; stroke-linecap: square"/>
   </g>
   <g id="patch_3">
    <path d="M 37.067331 169.788407 
L 37.067331 3.00024 
" style="fill: none; stroke: #000000; stroke-width: 0.8; stroke-linejoin: miter; stroke-linecap: square"/>
   </g>
   <g id="patch_4">
    <path d="M 212.99976 169.788407 
L 212.99976 3.00024 
" style="fill: none; stroke: #000000; stroke-width: 0.8; stroke-linejoin: miter; stroke-linecap: square"/>
   </g>
   <g id="patch_5">
    <path d="M 37.067331 169.788407 
L 212.99976 169.788407 
" style="fill: none; stroke: #000000; stroke-width: 0.8; stroke-linejoin: miter; stroke-linecap: square"/>
   </g>
   <g id="patch_6">
    <path d="M 37.067331 3.00024 
L 212.99976 3.00024 
" style="fill: none; stroke: #000000; stroke-width: 0.8; stroke-linejoin: miter; stroke-linecap: square"/>
   </g>
   <g id="legend_1">
    <g id="patch_7">
     <path d="M 89.178755 53.837237 
L 205.99976 53.837237 
Q 207.99976 53.837237 207.99976 51.837237 
L 207.99976 10.00024 
Q 207.99976 8.00024 205.99976 8.00024 
L 89.178755 8.00024 
Q 87.178755 8.00024 87.178755 10.00024 
L 87.178755 51.837237 
Q 87.178755 53.837237 89.178755 53.837237 
z
" style="fill: #ffffff; opacity: 0.8; stroke: #cccccc; stroke-linejoin: miter"/>
    </g>
    <g id="line2d_18">
     <g>
      <use xlink:href="#m97d52dd31d" x="101.178755" y="15.50024" style="fill-opacity: 0; stroke: #000000; stroke-linejoin: miter"/>
     </g>
    </g>
    <g id="text_13">
     <!-- Newton -->
     <g transform="translate(119.178755 19.00024)scale(0.1 -0.1)">
      <defs>
       <path id="CMR17-4e" d="M 1312 4275 
C 1267 4345 1261 4352 1139 4352 
L 326 4352 
L 326 4185 
L 448 4185 
C 704 4185 819 4153 838 4147 
L 838 624 
C 838 465 838 166 326 166 
L 326 0 
C 474 12 742 12 902 12 
C 1062 12 1331 12 1478 0 
L 1478 166 
C 966 166 966 465 966 624 
L 966 4057 
C 1011 4019 1011 4007 1056 3943 
L 3430 76 
C 3475 0 3494 0 3526 0 
C 3590 0 3590 19 3590 140 
L 3590 3726 
C 3590 3885 3590 4185 4102 4185 
L 4102 4352 
C 3955 4339 3686 4339 3526 4339 
C 3366 4339 3098 4339 2950 4352 
L 2950 4185 
C 3462 4185 3462 3885 3462 3726 
L 3462 777 
L 1312 4275 
z
" transform="scale(0.015625)"/>
       <path id="CMR17-65" d="M 2438 1503 
C 2464 1529 2464 1542 2464 1606 
C 2464 2251 2118 2816 1389 2816 
C 710 2816 173 2175 173 1394 
C 173 554 781 -64 1459 -64 
C 2176 -64 2458 619 2458 755 
C 2458 800 2419 800 2406 800 
C 2362 800 2355 787 2330 709 
C 2189 270 1837 51 1504 51 
C 1229 51 954 206 781 490 
C 582 819 582 1200 582 1503 
L 2438 1503 
z
M 589 1600 
C 634 2511 1126 2713 1382 2713 
C 1818 2713 2112 2308 2118 1600 
L 589 1600 
z
" transform="scale(0.015625)"/>
       <path id="CMR17-77" d="M 3725 2186 
C 3853 2566 4109 2579 4205 2585 
L 4205 2752 
C 4077 2745 3949 2739 3821 2739 
C 3699 2739 3424 2739 3315 2752 
L 3315 2585 
C 3514 2572 3622 2456 3622 2296 
C 3622 2251 3610 2193 3597 2148 
L 2995 398 
L 2342 2296 
C 2330 2341 2310 2392 2310 2418 
C 2310 2585 2528 2585 2630 2585 
L 2630 2752 
C 2483 2739 2214 2739 2061 2739 
C 1901 2739 1734 2739 1587 2752 
L 1587 2585 
C 1939 2585 1939 2572 2074 2167 
L 1485 443 
L 851 2302 
C 819 2386 819 2399 819 2418 
C 819 2585 1037 2585 1139 2585 
L 1139 2752 
C 986 2739 717 2739 557 2739 
C 416 2739 198 2739 64 2752 
L 64 2585 
C 346 2585 416 2566 486 2353 
L 1274 38 
C 1299 -45 1318 -64 1370 -64 
C 1414 -64 1440 -52 1472 44 
L 2131 1987 
L 2797 44 
C 2829 -52 2854 -64 2899 -64 
C 2950 -64 2970 -45 2995 38 
L 3725 2186 
z
" transform="scale(0.015625)"/>
       <path id="CMR17-74" d="M 966 2585 
L 1862 2585 
L 1862 2752 
L 966 2752 
L 966 3968 
L 851 3968 
C 838 3292 614 2700 70 2687 
L 70 2585 
L 627 2585 
L 627 778 
C 627 655 627 -64 1370 -64 
C 1747 -64 1965 308 1965 784 
L 1965 1151 
L 1850 1151 
L 1850 790 
C 1850 347 1677 51 1408 51 
C 1222 51 966 179 966 765 
L 966 2585 
z
" transform="scale(0.015625)"/>
       <path id="CMR17-6f" d="M 2758 1356 
C 2758 2176 2163 2816 1466 2816 
C 768 2816 173 2176 173 1356 
C 173 550 768 -64 1466 -64 
C 2163 -64 2758 550 2758 1356 
z
M 1466 51 
C 1165 51 909 230 762 480 
C 602 768 582 1126 582 1408 
C 582 1676 595 2009 762 2297 
C 890 2508 1139 2713 1466 2713 
C 1754 2713 1997 2553 2150 2329 
C 2349 2028 2349 1606 2349 1408 
C 2349 1158 2336 774 2163 467 
C 1984 172 1709 51 1466 51 
z
" transform="scale(0.015625)"/>
       <path id="CMR17-6e" d="M 2656 1954 
C 2656 2282 2592 2816 1837 2816 
C 1331 2816 1069 2424 973 2166 
L 966 2166 
L 966 2816 
L 211 2745 
L 211 2578 
C 589 2578 646 2540 646 2231 
L 646 443 
C 646 198 621 166 211 166 
L 211 0 
C 365 12 646 12 813 12 
C 979 12 1267 12 1421 0 
L 1421 166 
C 1011 166 986 192 986 443 
L 986 1678 
C 986 2269 1344 2713 1792 2713 
C 2266 2713 2317 2289 2317 1980 
L 2317 443 
C 2317 198 2291 166 1882 166 
L 1882 0 
C 2035 12 2317 12 2483 12 
C 2650 12 2938 12 3091 0 
L 3091 166 
C 2682 166 2656 192 2656 443 
L 2656 1954 
z
" transform="scale(0.015625)"/>
      </defs>
      <use xlink:href="#CMR17-4e" transform="scale(0.996264)"/>
      <use xlink:href="#CMR17-65" transform="translate(69.07243 0)scale(0.996264)"/>
      <use xlink:href="#CMR17-77" transform="translate(109.55809 0)scale(0.996264)"/>
      <use xlink:href="#CMR17-74" transform="translate(176.067971 0)scale(0.996264)"/>
      <use xlink:href="#CMR17-6f" transform="translate(211.348739 0)scale(0.996264)"/>
      <use xlink:href="#CMR17-6e" transform="translate(257.039216 0)scale(0.996264)"/>
     </g>
    </g>
    <g id="line2d_19">
     <g>
      <use xlink:href="#mfbce482650" x="101.178755" y="29.437418" style="fill-opacity: 0; stroke: #000000"/>
     </g>
    </g>
    <g id="text_14">
     <!-- Newton-Prandtl -->
     <g transform="translate(119.178755 32.937418)scale(0.1 -0.1)">
      <defs>
       <path id="CMR17-2d" d="M 1632 1254 
L 1632 1536 
L 26 1536 
L 26 1254 
L 1632 1254 
z
" transform="scale(0.015625)"/>
       <path id="CMR17-50" d="M 1267 2048 
L 2291 2048 
C 3117 2048 3718 2583 3718 3187 
C 3718 3791 3130 4352 2291 4352 
L 333 4352 
L 333 4185 
C 774 4185 845 4185 845 3899 
L 845 453 
C 845 166 774 166 333 166 
L 333 0 
C 518 12 858 12 1056 12 
C 1254 12 1594 12 1779 0 
L 1779 166 
C 1338 166 1267 166 1267 453 
L 1267 2048 
z
M 1254 2182 
L 1254 3937 
C 1254 4153 1267 4185 1523 4185 
L 2170 4185 
C 2995 4185 3232 3715 3232 3187 
C 3232 2608 2950 2182 2170 2182 
L 1254 2182 
z
" transform="scale(0.015625)"/>
       <path id="CMR17-72" d="M 960 1517 
C 960 2134 1222 2713 1702 2713 
C 1747 2713 1792 2707 1837 2687 
C 1837 2687 1696 2642 1696 2475 
C 1696 2321 1818 2257 1914 2257 
C 1990 2257 2131 2302 2131 2482 
C 2131 2687 1926 2816 1709 2816 
C 1222 2816 1011 2340 947 2115 
L 941 2115 
L 941 2816 
L 198 2745 
L 198 2578 
C 576 2578 634 2540 634 2231 
L 634 443 
C 634 198 608 166 198 166 
L 198 0 
C 352 12 646 12 813 12 
C 998 12 1325 12 1498 0 
L 1498 166 
C 1037 166 960 166 960 455 
L 960 1517 
z
" transform="scale(0.015625)"/>
       <path id="CMR17-61" d="M 2304 1656 
C 2304 2048 2304 2275 2035 2534 
C 1798 2751 1523 2816 1306 2816 
C 800 2816 435 2408 435 1977 
C 435 1740 627 1728 666 1728 
C 749 1728 896 1779 896 1958 
C 896 2118 774 2188 666 2188 
C 640 2188 608 2182 589 2176 
C 723 2594 1069 2713 1293 2713 
C 1613 2713 1965 2421 1965 1875 
L 1965 1632 
C 1587 1619 1133 1568 774 1373 
C 371 1147 256 822 256 576 
C 256 77 832 -64 1171 -64 
C 1523 -64 1850 135 1990 505 
C 2003 219 2182 -39 2464 -39 
C 2598 -39 2938 51 2938 563 
L 2938 926 
L 2822 926 
L 2822 557 
C 2822 161 2650 109 2566 109 
C 2304 109 2304 446 2304 732 
L 2304 1656 
z
M 1965 887 
C 1965 323 1568 38 1216 38 
C 896 38 646 278 646 576 
C 646 771 730 1114 1101 1322 
C 1408 1497 1760 1523 1965 1536 
L 1965 887 
z
" transform="scale(0.015625)"/>
       <path id="CMR17-64" d="M 1869 4345 
L 1869 4179 
C 2246 4179 2304 4141 2304 3843 
L 2304 2371 
C 2278 2403 2016 2816 1498 2816 
C 845 2816 211 2228 211 1376 
C 211 529 806 -64 1434 -64 
C 1978 -64 2259 361 2291 406 
L 2291 -64 
L 3066 -13 
L 3066 154 
C 2688 154 2630 193 2630 503 
L 2630 4416 
L 1869 4345 
z
M 2291 762 
C 2291 568 2176 393 2029 264 
C 1811 70 1594 38 1472 38 
C 1286 38 621 135 621 1369 
C 621 2636 1363 2713 1530 2713 
C 1824 2713 2061 2545 2208 2313 
C 2291 2177 2291 2157 2291 2041 
L 2291 762 
z
" transform="scale(0.015625)"/>
       <path id="CMR17-6c" d="M 979 4416 
L 218 4345 
L 218 4179 
C 595 4179 653 4141 653 3835 
L 653 439 
C 653 198 627 166 218 166 
L 218 0 
C 371 12 653 12 813 12 
C 979 12 1261 12 1414 0 
L 1414 166 
C 1005 166 979 191 979 439 
L 979 4416 
z
" transform="scale(0.015625)"/>
      </defs>
      <use xlink:href="#CMR17-4e" transform="scale(0.996264)"/>
      <use xlink:href="#CMR17-65" transform="translate(69.07243 0)scale(0.996264)"/>
      <use xlink:href="#CMR17-77" transform="translate(109.55809 0)scale(0.996264)"/>
      <use xlink:href="#CMR17-74" transform="translate(176.067971 0)scale(0.996264)"/>
      <use xlink:href="#CMR17-6f" transform="translate(211.348739 0)scale(0.996264)"/>
      <use xlink:href="#CMR17-6e" transform="translate(257.039216 0)scale(0.996264)"/>
      <use xlink:href="#CMR17-2d" transform="translate(307.934586 0)scale(0.996264)"/>
      <use xlink:href="#CMR17-50" transform="translate(338.010552 0)scale(0.996264)"/>
      <use xlink:href="#CMR17-72" transform="translate(400.596852 0)scale(0.996264)"/>
      <use xlink:href="#CMR17-61" transform="translate(435.87762 0)scale(0.996264)"/>
      <use xlink:href="#CMR17-6e" transform="translate(481.568097 0)scale(0.996264)"/>
      <use xlink:href="#CMR17-64" transform="translate(532.463467 0)scale(0.996264)"/>
      <use xlink:href="#CMR17-74" transform="translate(583.358837 0)scale(0.996264)"/>
      <use xlink:href="#CMR17-6c" transform="translate(618.639605 0)scale(0.996264)"/>
     </g>
    </g>
    <g id="line2d_20">
     <path d="M 91.178755 43.846577 
L 101.178755 43.846577 
L 111.178755 43.846577 
" style="fill: none; stroke: #000000; stroke-width: 1.5; stroke-linecap: square"/>
    </g>
    <g id="text_15">
     <!-- Bailey et al. (1971) -->
     <g transform="translate(119.178755 47.346577)scale(0.1 -0.1)">
      <defs>
       <path id="CMR17-42" d="M 333 4352 
L 333 4185 
C 774 4185 845 4185 845 3897 
L 845 451 
C 845 166 774 166 333 166 
L 333 0 
L 2534 0 
C 3354 0 3885 578 3885 1155 
C 3885 1726 3360 2214 2675 2259 
C 3290 2380 3718 2790 3718 3276 
C 3718 3808 3194 4352 2368 4352 
L 333 4352 
z
M 1248 2304 
L 1248 3936 
C 1248 4153 1261 4185 1517 4185 
L 2336 4185 
C 2970 4185 3251 3673 3251 3276 
C 3251 2790 2861 2304 2170 2304 
L 1248 2304 
z
M 1517 166 
C 1261 166 1248 198 1248 413 
L 1248 2201 
L 2432 2201 
C 3091 2201 3411 1624 3411 1161 
C 3411 698 3046 166 2349 166 
L 1517 166 
z
" transform="scale(0.015625)"/>
       <path id="CMR17-69" d="M 992 3961 
C 992 4102 877 4224 730 4224 
C 589 4224 467 4108 467 3961 
C 467 3820 582 3699 730 3699 
C 870 3699 992 3814 992 3961 
z
M 243 2745 
L 243 2579 
C 602 2579 653 2540 653 2231 
L 653 443 
C 653 198 627 166 218 166 
L 218 0 
C 371 12 646 12 806 12 
C 960 12 1222 12 1370 0 
L 1370 166 
C 992 166 979 205 979 436 
L 979 2816 
L 243 2745 
z
" transform="scale(0.015625)"/>
       <path id="CMR17-79" d="M 2496 2183 
C 2656 2579 2944 2585 3034 2585 
L 3034 2752 
C 2912 2745 2752 2739 2630 2739 
C 2496 2739 2285 2739 2157 2752 
L 2157 2585 
C 2400 2566 2406 2384 2406 2332 
C 2406 2268 2394 2235 2362 2158 
L 1664 409 
L 902 2300 
C 870 2378 870 2423 870 2430 
C 870 2572 1018 2585 1171 2585 
L 1171 2752 
C 1018 2739 742 2739 582 2739 
C 410 2739 205 2739 64 2752 
L 64 2585 
C 410 2585 448 2553 531 2345 
L 1485 -31 
C 1197 -795 1030 -1242 627 -1242 
C 557 -1242 397 -1223 282 -1106 
C 429 -1093 493 -1002 493 -892 
C 493 -782 416 -685 288 -685 
C 147 -685 77 -782 77 -899 
C 77 -1158 339 -1344 627 -1344 
C 998 -1344 1229 -983 1357 -659 
L 2496 2183 
z
" transform="scale(0.015625)"/>
       <path id="CMR17-2e" d="M 1062 262 
C 1062 422 934 524 800 524 
C 672 524 538 422 538 262 
C 538 102 666 0 800 0 
C 928 0 1062 102 1062 262 
z
" transform="scale(0.015625)"/>
       <path id="CMR17-28" d="M 1958 -1562 
C 1958 -1556 1958 -1543 1939 -1524 
C 1645 -1223 858 -403 858 1596 
C 858 3595 1632 4408 1946 4729 
C 1946 4735 1958 4748 1958 4767 
C 1958 4787 1939 4800 1914 4800 
C 1843 4800 1299 4325 986 3620 
C 666 2909 576 2218 576 1603 
C 576 1141 621 360 1005 -467 
C 1312 -1133 1837 -1600 1914 -1600 
C 1946 -1600 1958 -1588 1958 -1562 
z
" transform="scale(0.015625)"/>
       <path id="CMR17-37" d="M 2886 3955 
L 2886 4096 
L 1382 4096 
C 634 4096 621 4166 595 4288 
L 480 4288 
L 294 3104 
L 410 3104 
C 429 3226 474 3552 550 3673 
C 589 3724 1062 3724 1171 3724 
L 2579 3724 
L 1869 2670 
C 1395 1961 1069 1003 1069 166 
C 1069 89 1069 -128 1299 -128 
C 1530 -128 1530 89 1530 172 
L 1530 466 
C 1530 1514 1709 2204 2003 2644 
L 2886 3955 
z
" transform="scale(0.015625)"/>
       <path id="CMR17-29" d="M 1683 1596 
C 1683 2057 1638 2839 1254 3665 
C 947 4332 422 4800 346 4800 
C 326 4800 301 4793 301 4761 
C 301 4748 307 4742 314 4729 
C 621 4408 1402 3595 1402 1603 
C 1402 -396 627 -1210 314 -1530 
C 307 -1543 301 -1549 301 -1562 
C 301 -1594 326 -1600 346 -1600 
C 416 -1600 960 -1127 1274 -422 
C 1594 289 1683 981 1683 1596 
z
" transform="scale(0.015625)"/>
      </defs>
      <use xlink:href="#CMR17-42" transform="scale(0.996264)"/>
      <use xlink:href="#CMR17-61" transform="translate(65.188754 0)scale(0.996264)"/>
      <use xlink:href="#CMR17-69" transform="translate(110.879232 0)scale(0.996264)"/>
      <use xlink:href="#CMR17-6c" transform="translate(135.75029 0)scale(0.996264)"/>
      <use xlink:href="#CMR17-65" transform="translate(160.621349 0)scale(0.996264)"/>
      <use xlink:href="#CMR17-79" transform="translate(201.107009 0)scale(0.996264)"/>
      <use xlink:href="#CMR17-65" transform="translate(279.475891 0)scale(0.996264)"/>
      <use xlink:href="#CMR17-74" transform="translate(319.961552 0)scale(0.996264)"/>
      <use xlink:href="#CMR17-61" transform="translate(385.318286 0)scale(0.996264)"/>
      <use xlink:href="#CMR17-6c" transform="translate(431.008763 0)scale(0.996264)"/>
      <use xlink:href="#CMR17-2e" transform="translate(455.879821 0)scale(0.996264)"/>
      <use xlink:href="#CMR17-28" transform="translate(521.23654 0)scale(0.996264)"/>
      <use xlink:href="#CMR17-31" transform="translate(556.517308 0)scale(0.996264)"/>
      <use xlink:href="#CMR17-39" transform="translate(602.207785 0)scale(0.996264)"/>
      <use xlink:href="#CMR17-37" transform="translate(647.898262 0)scale(0.996264)"/>
      <use xlink:href="#CMR17-31" transform="translate(693.588739 0)scale(0.996264)"/>
      <use xlink:href="#CMR17-29" transform="translate(739.279217 0)scale(0.996264)"/>
     </g>
    </g>
   </g>
  </g>
 </g>
 <defs>
  <clipPath id="p4e1121c1ee">
   <rect x="37.067331" y="3.00024" width="175.932429" height="166.788167"/>
  </clipPath>
 </defs>
</svg>
